<svg width="18" height="75" viewBox="0 0 18 75" fill="none" xmlns="http://www.w3.org/2000/svg">
<g clip-path="url(#clip0_50_894)">
<path d="M7.0949e-06 -7.86362e-07C6.75322 3.31976 15.7398 21.043 17.335 33.6795C19.0898 47.3333 17.6009 55.2044 10.1032 71.2677C11.1667 71.0535 12.0175 70.7858 12.8151 70.6787C13.7191 70.5181 14.6763 70.3575 15.5802 70.411C15.8461 70.411 16.3247 70.8929 16.3779 71.2142C16.431 71.5354 16.0588 72.0709 15.7929 72.178C13.2405 73.1418 10.6882 73.9985 8.08258 74.9087C7.23179 75.1765 6.59369 74.8552 6.32781 73.9449C5.47702 70.4645 4.57304 66.9842 3.77542 63.4502C3.6159 62.647 3.82859 61.6832 3.82859 60.6124C6.11511 61.4691 5.84924 63.3967 6.43416 64.7888C7.07226 66.2345 7.44449 67.7873 8.08258 69.6614C11.0604 65.2172 12.9215 60.7194 14.0913 55.954C18.4517 38.4985 14.8358 22.4351 5.15797 7.60332C3.88177 5.67572 2.39288 3.90875 1.0635 2.0347C0.797632 1.44571 0.531757 0.910255 7.0949e-06 -7.86362e-07Z" fill="#1982C4"/>
</g>
<defs>
<clipPath id="clip0_50_894">
<rect width="75" height="18" fill="white" transform="matrix(0 1 -1 0 18 0)"/>
</clipPath>
</defs>
</svg>
