<svg width="406" height="400" viewBox="0 0 506 441" fill="none" xmlns="http://www.w3.org/2000/svg">
<path d="M56.8893 25.4954L25.6979 127.518C23.6652 134.167 26.1015 141.493 31.894 146.295C34.0851 148.118 36.5926 149.442 39.2561 150.256C43.6451 151.598 48.423 151.534 52.7008 149.886L107.249 129.116L98.1256 158.958C90.9463 182.44 106.118 207.884 132.021 215.804L141.399 218.671L125.804 269.682C123.911 275.872 125.878 282.72 130.966 287.548C133.348 289.82 136.248 291.469 139.362 292.421C142.851 293.487 146.591 293.664 150.178 292.864L254.869 269.092C261.374 267.604 266.143 263.075 267.895 257.345L272.697 258.813C286.539 263.045 300.611 259.817 310.213 251.689L390.436 276.216L400.833 242.208L382.076 236.474C344.562 225.005 331.333 216.888 327.843 145.521C326.636 120.757 333.538 62.2911 241.093 26.7579L241.296 26.0947L194.404 11.7585C168.501 3.83909 141.695 16.4494 134.516 39.9316L125.392 69.7732L91.7837 22.0515C87.5521 16.0352 80.0373 12.6406 72.5261 13.3935C65.0388 14.1351 58.922 18.847 56.8893 25.4954Z" fill="#1982C4"/>
<path opacity="0.4" d="M184.745 9.8094L122.934 211.984C125.801 213.474 128.795 214.817 132.021 215.804L141.399 218.671L133.601 244.177L232.037 274.271L254.869 269.092C261.374 267.604 266.143 263.075 267.895 257.345L207.048 238.742L268.022 39.3045C260.138 34.9046 251.274 30.6887 241.088 26.7749L178.913 230.14L150.778 221.538L213.161 17.493L194.404 11.7585C191.178 10.7721 187.955 10.1773 184.745 9.8094ZM103.942 39.3046L125.392 69.7732L107.249 129.116L72.4286 142.382L103.942 39.3046Z" fill="white"/>
<path opacity="0.3" d="M272.644 175.127C270.492 182.167 275.047 189.807 282.813 192.181C290.578 194.555 298.627 190.769 300.779 183.729C302.931 176.69 298.376 169.05 290.611 166.676C282.845 164.301 274.796 168.088 272.644 175.127ZM39.256 150.256C36.5925 149.442 34.085 148.118 31.894 146.295C26.1014 141.493 23.6652 134.167 25.6978 127.518L56.8893 25.4954C58.9219 18.847 65.0388 14.1351 72.5312 13.3765C80.0424 12.6236 87.5573 16.0181 91.7888 22.0345L103.942 39.3046L72.4285 142.381L52.7007 149.886C48.4229 151.534 43.6451 151.598 39.256 150.256Z" fill="black"/>
</svg>
