<svg width="400" height="351" viewBox="0 0 447 351" fill="none" xmlns="http://www.w3.org/2000/svg">
<path d="M460.54 284.911C456.07 279.914 448.993 277.861 442.546 279.676L411.708 287.5L400.785 291.039C394.507 285.035 386.32 278.374 378.306 271.772L389.601 238.968C392.854 229.522 387.706 219.105 378.163 215.819C359.944 209.545 344.461 209.978 332.703 217.071C327.31 219.825 322.742 224.016 318.823 229.198C286.547 209.632 247.142 189.916 198.731 173.246C166.109 162.014 125.855 173.512 120.918 174.886C120.686 174.998 120.453 175.11 120.453 175.11L140.372 229.996L103.147 247.916C108.982 276.629 139.983 287.495 139.983 287.495L174.686 299.445L168.773 316.619C166.407 323.489 168.384 331.278 174.09 336.124C175.818 337.872 177.955 338.992 180.211 339.769C184.722 341.322 189.825 341.158 194.246 339.03L233.856 319.818L244.094 323.343C256.934 327.765 269.782 331.036 282.693 333.561C281.13 358.957 293.865 378.903 319.025 387.567C328.569 390.853 339.038 385.813 342.291 376.367C342.291 376.367 354.418 340.583 354.481 339.836L383.103 342.392L409.074 376.885C411.2 379.73 414.315 381.955 417.612 383.091C420.388 384.047 423.401 384.316 426.477 383.838C433.209 382.89 438.69 378.245 440.878 371.891L464.533 303.191C466.721 296.837 465.261 289.802 460.54 284.911Z" fill="#1693E2"/>
<path opacity="0.2" d="M400.785 291.039L391.974 316.629L140.372 229.996L120.453 175.11C120.453 175.11 120.686 174.998 120.918 174.886C125.855 173.512 166.109 162.014 198.731 173.246C247.142 189.916 286.547 209.632 318.823 229.198C342.552 243.708 362.337 258.397 378.306 271.772C386.319 278.374 394.507 285.035 400.785 291.039Z" fill="black"/>
<path opacity="0.3" d="M194.198 200.502C191.75 207.613 183.933 211.376 176.749 208.902C169.565 206.429 165.722 198.651 168.17 191.54C170.619 184.43 178.436 180.667 185.62 183.14C192.803 185.614 196.647 193.392 194.198 200.502ZM354.469 339.928C354.325 340.628 354.32 341.318 354.084 342.005L342.256 376.355C338.986 385.852 328.586 390.859 318.991 387.555C293.831 378.891 281.101 358.986 282.63 333.52C307.96 338.476 332.589 340.06 354.469 339.928ZM233.926 319.842L194.211 338.961C189.768 341.1 184.722 341.322 180.211 339.769C177.972 338.998 175.859 337.809 174.014 336.175C168.453 331.302 166.384 323.558 168.773 316.619L174.686 299.445L233.926 319.842ZM464.533 303.191L440.878 371.891C438.696 378.228 433.168 382.837 426.5 383.884C423.465 384.357 420.423 384.058 417.612 383.091C414.246 381.931 411.217 379.793 408.975 376.889L383.103 342.392L400.785 291.039L442.471 279.611C449.01 277.925 455.976 279.958 460.569 284.883C465.197 289.819 466.715 296.854 464.533 303.191ZM378.163 215.819C352.135 206.857 332.044 211.657 318.823 229.198C342.552 243.708 362.337 258.397 378.306 271.772L389.601 238.968C392.854 229.522 387.706 219.105 378.163 215.819Z" fill="black"/>
</svg>
