<svg width="463" height="403" viewBox="0 0 463 403" fill="none" xmlns="http://www.w3.org/2000/svg">
<g clip-path="url(#clip0_50_730)">
<path d="M392.452 3.47813L442.368 140.622C444.733 147.12 443.56 154.264 439.342 159.099C437.584 161.098 435.404 162.571 433.038 163.432C429.737 164.634 426.018 164.687 422.448 163.404L355.301 139.561L433.096 260.481L225.642 259.73C165.633 261.361 106.014 185.389 106.014 185.389C106.014 185.389 103.793 91.4568 150.087 52.1451L308.601 -82.4869L326.524 60.1089L362.548 -1.1692C365.85 -6.77776 371.924 -9.70715 378.257 -8.73108C384.596 -7.73785 390.087 -3.01908 392.452 3.47813Z" fill="#1982C4"/>
<path opacity="0.4" d="M326.486 60.1031L308.616 -82.4926L214.042 -2.25315L221.404 17.9756L283.647 -13.9975L300.077 115.921L370.143 224.182L302.082 239.635L309.513 260.052L433.096 260.481L355.22 139.532L326.486 60.1031ZM238.867 259.731L283.033 259.964L277.666 245.221L236.933 254.417L238.867 259.731ZM161.996 48.5292L199.111 29.3903L193.869 14.9902L160.186 43.5577L161.996 48.5292Z" fill="white"/>
<path opacity="0.3" d="M157.389 156.983C160.833 166.446 156.653 176.665 148.058 179.793C139.464 182.921 129.693 177.78 126.249 168.317C122.805 158.854 126.985 148.635 135.579 145.507C144.174 142.379 153.944 147.52 157.389 156.983ZM161.996 48.5291L160.186 43.5577L150.087 52.1451C146.582 55.1099 143.398 58.4239 140.432 61.9496L212.074 258.786C216.575 259.477 221.101 259.849 225.642 259.73L238.886 259.783L238.867 259.731L236.933 254.417L161.996 48.5291ZM302.082 239.635L221.405 17.9756L214.061 -2.20175L193.857 14.9559L193.869 14.9902L199.111 29.3903L277.667 245.221L283.026 259.947L309.507 260.035L302.082 239.635ZM326.561 60.3088L355.139 139.309L355.301 139.561L394.099 153.337L347.302 24.7647L326.524 60.1089L326.561 60.3088Z" fill="black"/>
<ellipse cx="88" cy="163.5" rx="6" ry="6.5" fill="#75B4DC"/>
<ellipse cx="72.5" cy="133" rx="9.5" ry="10" fill="#00B4D8"/>
<ellipse cx="68" cy="91" rx="15" ry="16" fill="#125B89"/>
<ellipse cx="58.5" cy="49" rx="9.5" ry="10" fill="#1982C4"/>
</g>
<ellipse cx="22.5" cy="97" rx="9.5" ry="10" fill="#00B4D8"/>
<ellipse cx="12.5" cy="13.5" rx="12.5" ry="13.5" transform="matrix(-1 0 0 1 61 143)" fill="#1982C4"/>
<defs>
<clipPath id="clip0_50_730">
<rect width="397.656" height="437.838" fill="white" transform="translate(0 -8.99353) rotate(-20)"/>
</clipPath>
</defs>
</svg>
