<svg width="445" height="429" viewBox="0 0 445 429" fill="none" xmlns="http://www.w3.org/2000/svg">
<path d="M211.7 169.636L212.255 169.557C212.394 170.472 211.849 171.728 211.594 172.627C210.566 176.255 210.061 180.43 211.633 183.98C212.415 185.746 213.962 187.195 215.739 187.911L216.149 188.074C217.587 188.654 219.248 188.718 220.779 188.487C223.029 188.147 224.547 185.523 225.816 183.838L228.486 185.667L227.042 187.697C226.409 188.504 225.711 189.259 224.882 189.872C222.767 191.437 219.973 191.981 217.404 191.506C214.336 190.937 211.695 189.406 209.967 186.766C208.036 183.816 207.618 179.455 208.384 176.06C208.944 173.584 209.621 171.266 211.7 169.636Z" fill="#1982C4"/>
<path d="M159.748 43.7988C160.55 43.8476 161.31 43.917 162.059 44.2257C163.517 44.8263 165.017 46.061 165.596 47.5652C166.151 49.0042 165.855 50.5244 165.244 51.9026C164.319 53.9901 162.434 55.1137 160.379 55.8391L158.416 55.8182C157.137 55.6711 156.023 54.591 155.356 53.5579C154.437 52.1359 153.98 50.0738 154.345 48.4067L154.405 48.1511C154.55 47.5164 154.733 47.0017 155.085 46.4453C156.118 44.8126 157.954 44.1922 159.748 43.7988ZM159.793 46.2753C158.969 46.5382 157.993 47.0156 157.567 47.814C157.404 48.118 157.546 48.422 157.707 48.7028C158.045 49.2953 158.807 49.6277 159.41 49.8487L160.072 49.7493C160.864 49.3554 161.494 48.9927 162.129 48.3717L162.273 47.8201C161.822 47.1557 161.318 46.4645 160.47 46.3234L159.793 46.2753Z" fill="#1982C4"/>
<path d="M278.358 176.036L279.07 175.885C279.409 176.064 279.697 176.236 279.971 176.51C280.683 177.223 281.146 178.781 281.423 179.736C282.741 184.295 283.083 189.128 282.891 193.853C282.779 196.627 282.538 199.145 280.355 201.11C278.247 203.007 275.001 203.404 272.274 203.247C266.173 202.896 260.885 199.934 256.878 195.358L256.656 195.102C255.889 197.792 255.167 200.404 253.301 202.577C250.914 205.357 247.273 206.821 243.698 207.143C239.654 207.507 235.307 206.836 231.845 204.607C229.363 203.008 228.591 200.801 227.992 198.048C227.897 197.198 227.91 196.783 228.292 196.01C228.94 197.013 229.391 198.144 230.078 199.114C231.117 200.581 232.697 201.647 234.272 202.474C237.97 204.415 242.613 205.118 246.637 203.843C250.606 202.587 253.684 198.689 254.218 194.573C254.451 192.773 254.048 190.893 254.934 189.217C255.477 189.184 255.579 189.199 255.979 189.634C256.661 190.372 257.049 191.504 257.575 192.366C258.681 194.176 260.867 196.072 262.693 197.149C266.139 199.182 272.062 201.059 276.063 199.802C276.716 199.597 277.345 199.094 277.859 198.654C280.848 196.092 280.161 192.54 279.878 189.028C279.692 186.706 279.507 184.407 279.016 182.125C278.705 180.677 277.7 178.376 277.922 176.918C277.957 176.687 278.246 176.262 278.358 176.036Z" fill="#1982C4"/>
<path d="M263.096 148.45C263.271 148.466 263.454 148.47 263.616 148.551C264.019 148.754 264.279 149.016 264.479 149.409C265.45 151.315 264.934 154.855 264.202 156.792C262.65 160.909 259.069 164.192 255.096 165.959L254.808 166.085L255.175 167.76C256.098 171.796 255.98 176.886 253.809 180.532C251.955 183.646 248.684 186.035 245.171 186.897L244.74 187.001C240.545 188.06 236.005 187.599 232.155 185.625C227.638 183.31 226.781 178.633 225.408 174.209L222.59 173.302C219.273 172.193 216.472 169.525 215.017 166.368C214.39 165.008 213.55 162.595 214.203 161.177C214.438 160.666 214.549 160.597 215.045 160.445C216.393 162.059 216.752 164.505 218.089 166.279C219.356 167.962 221.028 168.884 223.095 169.159C224.855 169.395 227.611 169.42 228.666 167.717C229.17 166.905 229.284 165.91 229.446 164.988C229.586 164.197 229.654 163.346 230.334 162.822C230.73 162.846 230.787 162.787 231.116 163.06C231.837 163.66 232.14 165.01 232.176 165.907L232.179 166.105C231.432 169.045 230.194 171.514 227.696 173.319L227.4 173.531C228.171 176.295 229.056 179.306 231.291 181.278C234.105 183.76 238.29 184.834 241.98 184.506C245.178 184.221 248.257 183.129 250.356 180.596C253.614 176.664 253.063 172.039 252.644 167.29C249.636 167.396 246.365 167.713 243.46 166.796C239.419 165.521 236.353 162.226 234.487 158.521C233.934 157.424 233.163 155.523 233.609 154.328L234.699 151.7C235.806 154.349 236.828 157.215 238.635 159.484C240.519 161.849 243.445 163.851 246.506 164.177C250.021 164.551 254.183 163.683 256.986 161.457C259.231 159.672 261.448 156.815 261.988 153.935C262.233 152.634 262.197 151.3 262.386 149.995C262.497 149.22 262.465 148.91 263.096 148.45Z" fill="#1982C4"/>
<path d="M202.186 191C206.72 193.458 210.537 196.987 214.658 200.044C222.372 205.765 230.457 210.955 239.097 215.158C245.999 218.515 253.201 221.398 260.264 224.401C270.012 228.543 279.73 232.763 289.469 236.928C297.77 240.477 306.107 243.939 314.414 247.477C321.866 250.651 329.288 254.006 337.006 256.501C339.62 257.346 342.24 257.982 344.923 258.567C347.604 259.151 350.587 259.814 353.251 258.897C353.337 258.671 353.371 258.626 353.384 258.349C353.428 257.451 353.013 256.315 352.674 255.492C350.567 250.369 347.752 245.413 345.437 240.359C343.027 235.101 341.029 229.609 338.519 224.41C338.179 223.705 337.795 223.16 337.226 222.622C337.639 226.088 338.384 229.471 338.623 232.96C338.73 234.503 338.825 236.193 338.214 237.654C337.098 240.321 334.801 242.573 332.065 243.564C328.791 244.749 325.444 243.571 322.453 242.138C313.637 237.913 307.793 229.125 303.204 220.833C302.16 218.946 300.816 216.884 300.149 214.836C299.884 214.023 299.567 213.034 299.961 212.227L300.485 212.162C301.001 212.376 301.417 212.61 301.778 213.05C303.26 214.861 304.391 217.148 305.613 219.146C307.647 222.473 309.747 225.679 312.11 228.785C314.253 231.685 316.681 234.229 319.582 236.374C322.114 238.245 326.563 241.255 329.83 240.703L330.18 240.637C331.655 240.373 333.275 239.097 334.28 237.99C335.012 237.182 335.62 236.102 335.805 235.019C336.413 231.46 335.007 227.417 334.213 223.983C333.447 220.668 332.779 217.339 331.757 214.088C331.029 211.777 329.84 210.087 329.749 207.593L330.07 207.444C331.759 208.236 332.599 209.635 333.329 211.279C334.357 213.596 335.07 216.106 335.806 218.528C336.229 219.917 336.572 221.433 337.288 222.7L337.541 222.599C337.541 222.062 337.524 221.758 337.792 221.275L338.459 221.191C339.307 221.486 339.71 221.806 340.225 222.547C342.109 225.26 343.102 228.525 344.457 231.504C347.733 238.705 351.142 245.82 353.986 253.209C354.502 254.549 354.912 255.912 355.318 257.287C355.381 257.503 355.573 258.403 355.665 258.481C355.813 258.606 356.051 258.449 356.245 258.435C357.188 258.371 358.49 258.218 359.211 258.951C359.635 259.38 359.845 259.806 359.874 260.387C359.683 260.684 359.505 260.973 359.247 261.218C356.988 263.365 353.431 263.522 350.518 263.483C346.36 263.429 342.261 261.9 338.381 260.51C332.631 258.45 327.001 256.05 321.4 253.62C314.461 250.608 307.548 247.524 300.585 244.573C292.742 241.247 284.801 238.149 276.965 234.803C269.86 231.769 262.847 228.501 255.792 225.351C246.238 221.085 236.743 216.93 227.715 211.593C218.235 205.987 209.872 198.845 202.186 191Z" fill="#1982C4"/>
<path d="M156.521 16.0327C169.202 15.721 182.073 21.1907 192.032 28.7594C200.801 35.4242 207.717 44.5477 211.793 54.7666C213.167 58.2095 214.387 62.0929 214.824 65.7786C215.43 70.8851 215.558 76.2952 214.759 81.3942C212.406 96.4025 202.721 109.199 192.77 120.128C187.777 125.611 182.549 130.703 177.974 136.571C173.934 141.753 171.423 148.293 172.382 154.892C173 159.142 175.607 162.788 178.975 165.326C180.874 166.758 183.725 167.803 186.118 167.42L186.455 167.361C190.947 166.634 194.093 163.311 197.409 160.499C199.493 158.732 201.736 156.967 204.018 155.466C213.673 149.118 224.506 144.644 235.969 142.968C240.683 142.278 245.262 142.162 250.009 142.165C256.798 142.169 263.738 142.614 270.361 144.193C277.719 145.947 284.567 148.992 291.155 152.657C296.213 155.47 301.111 158.401 305.684 161.969C328.031 179.405 341.826 205.489 354.66 230.136C357.244 235.1 359.819 240.072 362.374 245.052C367.568 255.18 372.83 265.081 382.158 272.011C371.054 280.98 356.071 279.078 343.623 274.36C338.622 272.464 333.949 269.789 328.612 268.867C323.08 267.911 317.241 268.186 311.639 267.96C304.867 267.687 298.039 267.101 291.27 267.082C292.352 270.405 293.817 273.617 294.908 276.953C296.985 283.304 298.305 289.709 299.494 296.272L301.53 296.373C302.311 296.451 302.928 296.678 303.403 297.35C304.406 298.772 305.146 301.658 304.874 303.402L304.654 305.178C304.086 309.004 301.598 311.217 298.646 313.381L298.427 363.65C303.622 363.895 308.882 363.667 314.09 363.79C323.549 364.013 333 364.447 342.439 365.084C361.845 366.394 382.377 368.891 399.963 377.705C403.911 379.683 407.973 381.811 411.32 384.717C414.154 387.178 416.93 390.113 417.051 394.075C417.118 396.279 415.783 398.849 414.308 400.45C409.894 405.241 403.733 407.338 397.702 409.289C393.125 410.77 388.501 412.076 383.833 413.241C358.096 419.662 331.959 423.205 305.524 425.152C293.556 426.033 281.583 426.951 269.583 427.383C254.886 427.911 240.179 427.866 225.49 428.355C219.594 428.552 213.651 428.413 207.749 428.408C194.005 428.396 180.287 428.106 166.562 427.351C146.577 426.251 126.626 424.381 106.691 422.613C89.0759 421.05 71.5206 420.579 54.1265 417.046C49.7816 416.164 45.4493 414.828 41.2804 413.335C37.4838 411.976 33.1261 410.346 30.1482 407.502C28.2589 405.697 27.1817 403.791 27.1365 401.129C27.0815 397.897 27.9522 395.322 30.2457 392.999C33.9199 389.277 38.9515 388.14 43.7909 386.641C47.196 385.585 50.6025 384.525 54.0018 383.451C61.0188 381.235 68.0277 378.851 75.1601 377.031C89.2046 373.448 103.462 371.191 117.794 369.162C134.842 366.749 152.135 365.001 169.344 364.319C178.636 363.951 187.975 363.966 197.273 363.855C206.121 363.748 214.961 363.5 223.811 363.512C228.406 363.518 232.996 363.884 237.583 363.841C237.887 357.975 237.73 352.033 237.763 346.157C237.807 338.446 238.069 330.718 238.107 323.008C238.128 318.563 237.741 314.107 237.693 309.657C237.683 308.762 237.909 303.766 237.664 303.305C237.342 302.7 236.298 301.862 235.81 301.323C233.798 299.098 232.286 296.434 231.471 293.535C230.896 291.492 230.638 289.862 231.733 287.92L232.155 287.836C232.85 288.856 233.091 290.158 233.419 291.331C234.239 294.265 235.407 296.861 237.597 299.031C239.357 300.776 241.409 301.82 243.933 301.794C245.833 301.774 246.789 301.592 248.149 300.133C250.755 297.338 250.411 294.736 250.211 291.243C247.077 291.459 242.514 292.647 239.579 291.276C233.777 288.566 223.533 262.21 220.924 255.458C220.44 254.204 219.932 252.933 219.575 251.636C219.419 251.067 219.34 249.798 219.072 249.348C218.757 248.817 205.916 242.87 204.218 242.028C195.96 237.935 187.753 233.49 180.464 227.814C175.089 223.629 170.228 218.926 165.554 213.986C158.18 206.19 151.119 197.438 146.547 187.67C143.79 181.78 142.07 175.598 141.306 169.144C139.225 151.549 144.126 135.327 155.115 121.501C157.608 117.965 160.772 114.741 163.726 111.596C171.338 103.492 179.186 95.3114 183.558 84.8945C185.541 80.1687 186.164 75.0987 187.781 70.2726C189.022 74.7198 188.691 78.3916 187.402 82.7993C182.647 99.0574 168.331 109.394 158.254 122.131C153.59 128.029 149.888 134.407 147.267 141.465C141.428 157.189 143.537 173.672 150.39 188.693C152.996 194.406 156.926 199.272 160.855 204.109C167.911 212.796 176.246 220.638 185.386 227.099C191.061 231.11 197.322 234.463 203.478 237.671C228.203 250.555 254.263 258.599 281.83 262.588C289.937 263.761 298.475 264.376 306.657 264.578C313.979 264.76 321.912 264.291 329.092 265.798C335.245 267.089 340.67 269.759 346.517 271.912C353.244 274.389 360.754 276.319 367.946 275.037C371.229 274.452 374.243 273.248 377.252 271.858C374.834 269.623 372.455 267.242 370.461 264.616C366.702 259.663 363.791 254.012 360.798 248.579C353.473 235.29 346.97 221.562 339.49 208.365C332.061 195.261 322.882 183.092 312.268 172.399C308.987 169.093 305.718 165.999 302.031 163.15C300.568 162.02 299.209 160.78 297.509 160.01C298.448 161.265 299.755 162.265 300.898 163.336C303.155 165.451 305.196 167.585 306.904 170.185C308.259 172.25 310.329 175.369 309.616 177.939C309.313 179.029 308.048 179.771 307.123 180.309C307.031 180.362 306.891 180.371 306.845 180.467C306.838 180.48 308.115 183.606 308.266 184.028C309.147 186.498 309.477 190.606 308.627 193.099C308.052 194.783 306.933 196.176 305.327 196.965C301.83 198.684 298.007 197.135 294.604 195.952C295.572 204.863 299.129 214.149 297.461 223.131C297.214 224.466 296.868 226.088 296.129 227.233C295.002 228.978 293.154 230.18 291.107 230.488C285.843 231.282 279.994 228.538 275.827 225.557C269.797 221.242 264.345 214.765 263.11 207.261L263.395 207.004C264.478 207.421 264.991 208.326 265.658 209.227C267.119 211.203 268.275 213.338 269.706 215.307C274.163 221.44 280.438 226.514 288.136 227.658C289.571 227.872 291.345 228.103 292.556 227.122C293.735 226.167 294.346 224.273 294.492 222.82C294.91 218.678 294.358 214.027 293.889 209.91C293.52 206.679 293.256 203.518 292.635 200.313C292.309 198.626 292.017 196.288 291.058 194.828C289.741 192.823 287.407 191.962 285.934 190.159C285.781 189.479 285.664 189.4 286.025 188.774C287.893 188.55 290.024 190.373 291.604 191.302C294.461 192.98 299.119 195.384 302.525 194.868C303.645 194.698 304.223 194.169 304.861 193.249C306.228 191.276 306.439 189.002 305.942 186.71C305.79 186.007 304.669 181.755 304.306 181.552C304.122 181.45 303.419 181.473 303.149 181.449C302 181.342 300.84 181.245 299.701 181.055C296.685 180.552 293.975 179.302 291.434 177.629C286.604 174.449 282.866 169.862 279.387 165.31C278.038 163.545 276.366 161.699 275.901 159.484L276.2 159.126C276.838 159.163 277.253 159.247 277.756 159.666C280.226 161.724 282.319 164.933 284.367 167.433C285.755 169.127 287.458 170.8 289.061 172.291C290.906 174.006 293.28 175.503 295.526 176.649C299.392 178.621 303.163 178.555 307.231 177.264C305.748 172.915 303.018 169.897 299.986 166.535C296.626 162.808 293.124 159.371 289.123 156.322C280.854 150.02 270.469 146.973 260.266 145.754C243.959 143.805 226.536 146.21 212.092 154.356C208.944 156.132 205.892 158.034 202.96 160.149C198.018 163.714 192.578 169.91 186.332 170.62C182.712 171.03 179.104 169.636 176.292 167.411C172.5 164.412 169.798 159.607 169.253 154.801C167.355 138.044 184.253 125.26 194.351 114.107C199.169 108.787 203.768 102.805 206.927 96.3353C212.831 84.2467 214.276 70.7084 209.793 57.9164C204.81 43.6992 193.435 31.1538 179.821 24.6868C167.087 18.6384 152.981 17.0847 139.592 22.0071C131.611 24.9411 125.188 31.354 121.642 38.9998C118.256 46.2996 117.813 54.0284 118.852 61.9295C119.067 63.5646 119.266 65.7682 120.049 67.2376C120.249 67.6137 120.345 67.4416 120.668 67.3413C123.327 66.5145 126.1 65.7398 128.904 66.1836C132.904 66.8169 136.947 69.0645 139.239 72.4623C141.828 76.2993 142.584 80.8113 141.715 85.3256L141.635 85.7295C145.604 86.8541 149.271 87.3443 153.382 87.2093C160.996 86.9596 169.169 83.1359 174.22 77.4338C176.84 74.477 178.713 71.0392 180.406 67.5012C181.207 65.8273 181.984 64.1458 182.723 62.444C183.336 61.0343 183.895 59.5133 184.951 58.3689L185.296 58.523C185.479 60.2202 185.023 61.8171 184.588 63.4447C183.874 66.117 183.014 68.7435 181.806 71.238C177.928 79.2491 171.372 85.5145 162.864 88.3745C157.602 90.1435 151.203 91.0776 145.731 89.742C143.724 89.2524 141.887 88.3832 140.042 87.4747C139.081 89.3005 137.698 90.9402 136.385 92.525C133.487 96.0247 130.164 99.3228 126.864 102.449C123.657 105.488 119.811 109.708 115.77 111.541C114.777 111.991 113.651 112.394 112.546 112.317C111.112 112.218 109.916 111.129 109.07 110.058C104.682 104.503 103.619 98.7926 104.45 91.8534C105.476 83.3011 111.065 75.8114 117.682 70.6145C117.679 69.5333 116.722 67.8501 116.423 66.7509C115.907 64.8567 115.584 62.6908 115.426 60.7301C114.691 51.6314 115.919 41.8153 120.684 33.8755C122.022 31.6463 123.774 29.5894 125.48 27.6295C133.205 18.7523 145.461 16.7592 156.521 16.0327ZM240.343 304.692C240.301 307.697 240.659 310.653 240.897 313.644C241.063 315.718 241.025 317.801 241.147 319.877C241.286 322.279 241.588 324.687 241.647 327.091C241.841 334.997 241.795 342.908 241.617 350.814C241.556 353.49 241.279 356.168 241.217 358.841C240.966 369.659 240.968 380.531 239.674 391.285L255.981 391.536L255.866 394.175C247.863 394.166 239.859 394.141 231.856 394.167C230.079 394.172 228.302 394.187 226.526 394.187C226.141 394.187 225.077 394.288 224.759 394.169C224.611 394.112 224.525 393.954 224.408 393.847C224.361 393.111 224.396 392.674 224.617 391.971C225.424 391.417 226.639 391.518 227.59 391.498C229.807 391.451 232.021 391.352 234.239 391.34C234.939 391.336 236.257 391.497 236.857 391.198L237.433 366.646C223.622 366.584 209.789 366.425 195.981 366.704C171.171 367.205 146.42 368.734 121.796 371.826C109.265 373.401 96.6406 375.082 84.3231 377.93C73.9662 380.324 63.9669 383.717 53.8455 386.919C50.4957 387.979 47.158 389.077 43.812 390.148C39.7269 391.457 34.2305 392.663 31.1003 395.724C29.9535 396.845 28.9425 398.296 29.0012 399.977C29.0715 401.989 30.4633 403.799 31.915 405.059C33.4683 406.408 35.0901 407.335 36.9035 408.285C40.0997 409.96 43.8589 411.127 47.3227 412.133C57.7688 415.166 68.4862 416.487 79.2939 417.396C82.5932 417.674 85.9713 418.273 89.27 417.795C86.931 416.478 84.0507 415.973 81.4521 415.339C78.2565 414.558 75.0633 413.766 71.8625 413.009C67.5995 412 63.6818 411.059 59.7885 408.977C64.7487 409.741 69.6678 410.416 74.5979 411.387C88.3723 414.099 101.928 417.52 115.806 419.757C125.95 421.391 136.222 422.099 146.455 422.918C157.361 423.791 168.305 424.725 179.239 425.134C191.69 426.251 204.357 426.313 216.841 426.219C229.9 426.12 242.841 425.823 255.889 425.272C295.566 423.592 335.527 421.009 374.38 412.362C380.481 411.004 386.601 409.407 392.525 407.399C397.985 405.548 402.915 403.527 407.382 399.801C409.435 398.089 411.694 395.514 411.846 392.744C411.976 390.372 410.404 388.803 408.84 387.261C405.352 383.822 400.7 381.528 396.26 379.547C374.659 369.907 349.573 367.621 326.157 366.98C319.981 366.811 313.748 366.779 307.568 366.751C304.412 366.736 301.063 366.96 297.933 366.646L297.549 391.496C299.056 391.554 303.096 391.283 304.182 392.192C304.308 392.922 304.286 393.209 304.018 393.9C303.473 394.294 302.878 394.337 302.223 394.371C299.104 394.537 295.954 394.229 292.828 394.241C287.361 394.261 281.893 394.514 276.421 394.56L275.979 394.229C275.917 393.561 275.845 392.955 275.979 392.288C276.623 391.813 277.51 391.945 278.277 391.923C280.772 391.848 283.268 391.802 285.764 391.771C285.953 391.769 287.545 391.752 287.545 391.752C287.551 391.747 287.634 391.2 287.643 391.131C288.402 385.959 287.816 380.636 287.646 375.446C287.55 372.515 287.755 369.584 287.624 366.652L248.046 366.585C247.996 369.24 247.932 371.898 247.93 374.553C247.927 378.4 248.62 386.195 245.753 389.009C245.235 389.517 244.641 389.755 243.967 389.99L243.467 389.739C243.327 388.541 244.329 387.3 244.502 386.059C244.821 383.781 244.722 381.171 244.739 378.861C244.787 372.412 245.052 365.975 245.162 359.531C245.351 348.502 245.317 337.422 245.342 326.39C245.352 321.974 245.381 317.558 245.369 313.143C245.362 310.499 245.475 307.794 245.135 305.17L244.82 305.174C243.288 305.185 241.851 304.901 240.343 304.692ZM240.1 257.078C243.162 265.058 246.819 273.02 247.562 281.662C247.746 283.801 247.626 286.033 247.618 288.181L251.503 288.382C253.09 291.092 253.971 294.727 253.083 297.861C252.373 300.37 250.179 302.618 248.055 304.006L248.234 363.516L287.995 363.509L289.139 334.428C289.27 329.4 289.661 324.319 289.941 319.29C290.056 317.223 290.474 314.904 290.199 312.857C289.963 311.097 288.413 309.244 287.531 307.728C285.708 304.595 284.253 299.883 284.548 296.234L285.031 295.919C285.667 296.076 285.959 296.226 286.468 296.637C287.681 298.967 288.117 301.511 288.988 303.959C289.502 305.401 290.283 306.743 291.091 308.037C291.92 309.365 292.46 310.408 294.018 310.911C295.147 311.276 296.302 311.049 297.321 310.477C299.298 309.365 300.887 306.977 301.444 304.802C301.763 303.555 302.075 302.212 301.786 300.94L301.694 300.511C301.537 299.874 301.109 299.228 300.796 298.655C298.594 298.956 295.908 300.104 293.752 299.912C292.343 299.787 290.844 298.96 289.729 298.122C287.033 296.097 285.191 293.116 283.255 290.407C278.621 283.927 274.294 277.143 270.335 270.231C269.345 268.503 268.514 266.688 267.543 264.948C267.354 264.609 267.018 263.784 266.749 263.578C266.598 263.461 265.822 263.361 265.614 263.312C264.276 262.999 262.937 262.69 261.6 262.37C254.475 260.665 247.127 259.135 240.1 257.078ZM221.872 250.502L221.997 250.73C224.614 255.593 226.407 260.997 228.489 266.103C231.005 272.275 233.936 278.245 237.385 283.948C238.104 285.136 239.532 287.829 240.799 288.385C241.575 288.725 242.837 288.378 243.525 287.953L244.187 287.44C245.823 285.075 245.188 281.512 244.697 278.865C243.887 274.493 242.463 270.267 240.984 266.083C239.868 262.927 238.631 259.727 238.012 256.429L221.872 250.502ZM269.943 264.307C273.502 270.72 287.299 294.667 293.585 296.47C294.541 296.744 295.189 296.555 296.07 296.15C296.672 295.327 296.463 294.428 296.313 293.486C295.351 287.43 293.165 281.593 291.285 275.782C290.316 272.786 289.537 269.743 288.638 266.727C284.246 266.124 279.857 265.506 275.464 264.912C273.883 264.698 271.503 264.064 269.943 264.307ZM293.356 313.982L289.745 391.507L293.144 391.571L293.862 391.347C294.196 390.16 294.168 388.893 294.25 387.668C294.406 385.338 294.509 383.014 294.596 380.681C295.072 367.97 294.875 355.252 295.099 342.537C295.267 333.025 296.158 323.453 295.981 313.943L293.356 313.982ZM125.675 69.586L121.492 71.1082C123.824 71.4709 126.261 71.5219 128.547 72.0555C131.884 72.8343 134.483 75.1375 136.469 77.8342L137.524 79.3778L139.041 81.6932C138.036 77.4164 136.564 73.5476 132.658 71.1493C130.592 69.8804 128.094 69.3067 125.675 69.586Z" fill="#1982C4"/>
</svg>
