<svg width="450" height="230" viewBox="0 0 492 298" fill="none" xmlns="http://www.w3.org/2000/svg">
<g clip-path="url(#clip0_53_1182)">
<path d="M179.128 205.766C172.832 203.841 128.594 183.961 83.0586 208.172C83.0586 208.172 81.0096 228.732 106.789 234.495L179.128 205.766Z" fill="#0096C7"/>
<path d="M171.058 190.587C117.932 218.834 66.2504 304.724 66.2504 304.724C-9.64272 345.077 -64.9186 440.989 -79.5388 490.543C-79.5388 490.543 -42.8948 450.372 -11.2713 433.558C19.5601 417.165 45.7969 415.891 61.5497 424.043C93.4452 440.547 120.846 497.314 121.11 537.587C121.11 537.587 159.944 482.462 126.148 418.9C108.928 386.513 88.7684 336.218 97.2107 319.723C134.259 334.624 198.834 351.047 258.872 319.125C349.944 270.701 348.019 193.845 348.019 193.845C348.019 193.845 254.541 146.198 171.058 190.587Z" fill="#ADE8F4"/>
<path d="M248.877 227.09C245.323 238.714 226.599 258.405 211.425 266.474C210.351 267.044 215.233 251.672 208.423 238.865C201.614 226.058 186.14 221.509 187.213 220.938C202.387 212.87 217.557 204.804 240.807 211.912L248.877 227.09Z" fill="#0096C7"/>
<path d="M249.839 265.518C232.352 290.093 239.658 319.606 202.02 336.382C204.928 336.066 207.849 335.664 210.779 335.189C199.742 352.464 183.221 378.426 183.461 378.692C207.191 405.014 237.549 388.873 237.549 388.873L239.41 327.774C245.922 325.406 252.424 322.554 258.873 319.126C349.944 270.701 348.019 193.845 348.019 193.845C303.445 256.485 272.126 234.198 249.839 265.518Z" fill="#0096C7"/>
<path d="M292.875 218.295C299.162 214.952 301.549 207.145 298.206 200.858C294.863 194.571 287.056 192.184 280.769 195.527C274.482 198.87 272.095 206.677 275.438 212.964C278.781 219.251 286.588 221.638 292.875 218.295Z" fill="#464655"/>
<path d="M202.017 336.383C164.252 341.042 162.452 281.968 123.411 284.066C104.218 285.098 97.0883 307.796 97.2098 319.723C122.111 330.69 156.523 341.995 202.017 336.383Z" fill="#1982C4"/>
<path d="M261.216 240.001C250.018 218.94 250.515 194.293 260.344 171.92C254.352 171.626 248.197 171.584 241.926 171.856C232.8 197.087 233.44 224.379 246.038 248.072C257.276 269.208 276.211 284.054 298.638 291.657C303.73 287.087 308.293 282.448 312.389 277.8C290.396 272.609 271.664 259.651 261.216 240.001Z" fill="#1982C4"/>
</g>
<defs>
<clipPath id="clip0_53_1182">
<rect width="524.323" height="524.323" fill="white" transform="translate(-218 246.155) rotate(-28)"/>
</clipPath>
</defs>
</svg>
