<svg width="361" height="72" viewBox="0 0 361 72" fill="none" xmlns="http://www.w3.org/2000/svg">
<path d="M13.6197 21.2825C17.8699 27.6579 20.4749 32.148 21.4346 34.753C22.3944 37.358 23.1827 42.2253 23.7997 49.3547C24.6223 48.1893 25.2393 47.1953 25.6506 46.3727C27.0902 43.562 28.2214 39.6546 29.044 34.6502L36.5505 27.1437C36.0706 29.8858 35.6593 32.2852 35.3165 34.3417C34.4254 39.2775 33.8084 42.0539 33.4656 42.6709C32.026 45.4815 28.9754 49.4576 24.3139 54.599L16.9102 62.0027C16.7045 58.9864 16.4303 56.2443 16.0876 53.7764C15.402 47.8809 14.6822 43.8705 13.9281 41.7454C12.7628 38.592 9.33512 32.9364 3.64526 24.7786L7.14144 21.2825H0.560396V15.2156H5.80467C7.86124 10.0056 10.5005 6.50939 13.7225 4.72703C17.2872 2.80756 20.852 1.84782 24.4167 1.84782C25.8563 1.84782 26.816 2.05348 27.2959 2.46479C27.7758 2.80756 28.2214 3.15032 28.6327 3.49308C29.3867 4.11005 29.7638 4.72703 29.7638 5.344C29.7638 6.23518 29.0097 7.05781 27.5016 7.81189C26.6104 8.29176 25.1022 8.53169 22.9771 8.53169C22.4287 8.53169 21.6403 8.49742 20.612 8.42887C19.5837 8.42887 18.8297 8.42887 18.3498 8.42887C16.4303 8.42887 15.1621 8.63452 14.5451 9.04584C12.8999 10.2798 11.426 12.3364 10.1235 15.2156H39.841V21.2825H13.6197ZM73.0236 60.6659H65.8256V32.388H48.9616C48.8245 34.5131 48.756 36.6725 48.756 38.8662C48.756 45.1045 49.373 48.7035 50.6069 49.6632C52.3207 50.9657 56.0911 51.7198 61.9181 51.9255V57.1697H50.4012C47.6591 57.1697 45.2598 56.3814 43.2032 54.8047C41.2152 53.228 40.2212 51.2399 40.2212 48.8406V26.1154H73.0236V60.6659ZM51.6352 13.5703H61.4039V15.2156H76.5198V21.2825H36.725V15.2156H51.6352V13.5703ZM73.6392 15.2156H115.902V21.2825H73.6392V15.2156ZM112.406 28.2748L106.03 36.1926C102.808 34.8901 99.7577 34.2389 96.8785 34.2389C94.1364 34.2389 90.7087 34.8901 86.5956 36.1926V51H101.814C103.871 51 105.585 50.1774 106.956 48.5321C107.847 47.4353 109.149 45.6529 110.863 43.185C111.069 49.9032 110.863 53.982 110.246 55.4216C110.041 55.7644 109.389 56.1414 108.292 56.5528C107.196 56.9641 105.927 57.1697 104.488 57.1697H84.8475C84.0249 57.1697 82.8252 57.0669 81.2485 56.8612C79.6718 56.7241 78.8149 56.587 78.6778 56.4499C77.6495 55.4902 77.1353 53.8792 77.1353 51.617V28.2748C83.0994 26.4239 89.3034 25.4984 95.7474 25.4984C102.054 25.4984 107.607 26.4239 112.406 28.2748ZM124.135 33.5191C125.163 31.5311 129.037 30.5371 135.755 30.5371C146.655 30.5371 152.105 32.9707 152.105 37.8379V47.401C152.105 48.7035 151.351 50.4516 149.842 52.6453C148.334 54.9075 146.929 56.4157 145.626 57.1697H135.755C136.92 56.21 138.257 54.7018 139.765 52.6453C141.41 50.3145 142.233 48.6349 142.233 47.6066V39.9973C140.451 38.5577 138.977 37.6665 137.811 37.3238C136.646 36.9125 134.864 36.7068 132.464 36.7068C130.476 36.7068 128.762 36.9467 127.323 37.4266C125.129 38.1121 124.032 39.2432 124.032 40.8199V64.4706H116.937V21.2825H112.927V15.2156H118.377C119.611 11.1024 121.976 7.57196 125.472 4.6242C129.037 1.60788 132.91 0.0997279 137.092 0.0997279C139.08 0.0997279 141.136 0.44249 143.261 1.12802C146.072 2.0192 147.477 3.25315 147.477 4.82986C147.477 5.65249 146.997 6.33801 146.038 6.88643C145.147 7.3663 144.255 7.60623 143.364 7.60623C142.267 7.60623 140.588 7.43485 138.326 7.09209C136.132 6.74933 134.452 6.57794 133.287 6.57794C128.283 6.57794 124.718 9.45715 122.593 15.2156H156.115V21.2825H124.135V33.5191Z" fill="black"/>
<path d="M184.768 50.2802C184.494 48.6349 183.26 46.9897 181.067 45.3444C179.284 44.0419 177.433 43.0136 175.514 42.2595C172.703 41.2313 166.088 40.6828 155.668 40.6143C156.216 38.969 156.799 37.4266 157.416 35.987C158.924 32.4908 160.535 29.8858 162.249 28.172C165.539 24.7444 169.721 22.4479 174.794 21.2825H153.2V15.2156H197.622V21.2825H186.722C189.396 22.4479 192.172 23.8875 195.051 25.6013L187.75 32.9021C180.347 28.789 175 26.7324 171.709 26.7324C170.407 26.7324 169.138 27.5208 167.904 29.0975C167.082 30.4685 166.225 31.8396 165.334 33.2106C171.572 33.2106 175.959 33.4505 178.496 33.9304C183.294 34.753 187.133 36.604 190.013 39.4832C191.315 40.7857 191.966 42.2595 191.966 43.9048C191.966 47.4695 188.333 52.0626 181.067 57.6839H156.182L163.586 50.2802H184.768ZM231.222 60.6659H224.024V32.388H207.16C207.023 34.5131 206.954 36.6725 206.954 38.8662C206.954 45.1045 207.571 48.7035 208.805 49.6632C210.519 50.9657 214.29 51.7198 220.117 51.9255V57.1697H208.6C205.858 57.1697 203.458 56.3814 201.402 54.8047C199.414 53.228 198.42 51.2399 198.42 48.8406V26.1154H231.222V60.6659ZM209.834 13.5703H219.602V15.2156H234.718V21.2825H194.924V15.2156H209.834V13.5703ZM243.046 33.5191C244.074 31.5311 247.948 30.5371 254.666 30.5371C265.566 30.5371 271.015 32.9707 271.015 37.8379V47.401C271.015 48.7035 270.261 50.4516 268.753 52.6453C267.245 54.9075 265.84 56.4157 264.537 57.1697H254.666C255.831 56.21 257.168 54.7018 258.676 52.6453C260.321 50.3145 261.144 48.6349 261.144 47.6066V39.9973C259.362 38.5577 257.888 37.6665 256.722 37.3238C255.557 36.9125 253.774 36.7068 251.375 36.7068C249.387 36.7068 247.673 36.9467 246.234 37.4266C244.04 38.1121 242.943 39.2432 242.943 40.8199V64.4706H235.848V21.2825H231.838V15.2156H237.288C238.522 11.1024 240.887 7.57196 244.383 4.6242C247.948 1.60788 251.821 0.0997279 256.002 0.0997279C257.99 0.0997279 260.047 0.44249 262.172 1.12802C264.983 2.0192 266.388 3.25315 266.388 4.82986C266.388 5.65249 265.908 6.33801 264.949 6.88643C264.057 7.3663 263.166 7.60623 262.275 7.60623C261.178 7.60623 259.499 7.43485 257.236 7.09209C255.043 6.74933 253.363 6.57794 252.198 6.57794C247.193 6.57794 243.629 9.45715 241.504 15.2156H275.026V21.2825H243.046V33.5191ZM308.423 60.6659H301.225V32.388H284.361C284.224 34.5131 284.156 36.6725 284.156 38.8662C284.156 45.1045 284.773 48.7035 286.007 49.6632C287.72 50.9657 291.491 51.7198 297.318 51.9255V57.1697H285.801C283.059 57.1697 280.659 56.3814 278.603 54.8047C276.615 53.228 275.621 51.2399 275.621 48.8406V26.1154H308.423V60.6659ZM287.035 13.5703H296.804V15.2156H311.919V21.2825H272.125V15.2156H287.035V13.5703ZM346.366 59.8433L339.168 67.1441C336.837 69.4749 333.649 70.6403 329.605 70.6403C325.629 70.6403 321.378 69.1664 316.854 66.2187L324.155 58.9178C328.542 61.797 332.689 63.2366 336.597 63.2366C337.42 63.2366 338.242 63.1681 339.065 63.031V46.5784C332.758 49.389 328.576 50.9657 326.52 51.3085C325.766 51.4456 324.943 51.5141 324.052 51.5141C319.322 51.5141 315.723 50.2802 313.255 47.8123C312.501 47.0582 312.124 46.0299 312.124 44.7274C312.124 42.3967 313.358 39.0376 315.826 34.6502C317.539 31.8396 319.253 29.0289 320.967 26.2183H325.183C321.824 32.2509 320.144 36.5354 320.144 39.0719C320.144 39.6888 320.281 40.1687 320.556 40.5115C322.475 42.9108 325.8 44.1105 330.53 44.1105C331.627 44.1105 332.655 44.0419 333.615 43.9048C334.643 43.6992 336.46 43.1165 339.065 42.1567V21.2825H309.039V15.2156H341.636C342.595 11.9936 344.789 8.84018 348.217 5.75531C351.301 3.01321 353.838 1.53933 355.826 1.33367C357.54 1.19657 358.808 1.40223 359.631 1.95065C360.453 2.43052 360.865 3.49308 360.865 5.13834C360.865 5.89242 360.419 6.54367 359.528 7.09209C358.637 7.64051 357.745 7.91472 356.854 7.91472C355.757 7.84617 354.146 7.81189 352.021 7.81189C350.65 7.81189 349.451 8.49742 348.422 9.86847C347.6 10.9653 346.743 12.7477 345.852 15.2156H352.227V21.2825H346.469L346.366 59.8433Z" fill="black"/>
</svg>
