<svg width="986" height="197" viewBox="0 0 986 197" fill="none" xmlns="http://www.w3.org/2000/svg">
<path d="M35.7771 59.7295C47.4005 77.1647 54.5246 89.4443 57.1492 96.5684C59.7739 103.692 61.9299 117.003 63.6171 136.501C65.8668 133.314 67.5541 130.595 68.679 128.345C72.6159 120.659 75.7093 109.973 77.959 96.2872L98.4875 75.7586C97.1752 83.2576 96.0503 89.8193 95.113 95.4435C92.6758 108.942 90.9885 116.534 90.0511 118.222C86.1142 125.908 77.7715 136.782 65.0232 150.842L44.7759 171.09C44.2134 162.841 43.4635 155.342 42.5262 148.593C40.6514 132.47 38.6829 121.503 36.6207 115.691C33.4336 107.067 24.0599 91.6003 8.49941 69.2907L18.0606 59.7295H0.0630197V43.1379H14.4049C20.0291 28.8898 27.2469 19.3286 36.0583 14.4542C45.807 9.2049 55.5557 6.58025 65.3044 6.58025C69.2414 6.58025 71.866 7.14267 73.1784 8.26753C74.4907 9.2049 75.7093 10.1423 76.8341 11.0797C78.8964 12.7669 79.9275 14.4542 79.9275 16.1415C79.9275 18.5787 77.8652 20.8284 73.7408 22.8906C71.3036 24.2029 67.1792 24.8591 61.3674 24.8591C59.8676 24.8591 57.7117 24.7653 54.8995 24.5779C52.0874 24.5779 50.0252 24.5779 48.7128 24.5779C43.4635 24.5779 39.9952 25.1403 38.308 26.2651C33.8086 29.6397 29.7778 35.264 26.2158 43.1379H107.486V59.7295H35.7771ZM198.233 167.434H178.548V90.1005H132.429C132.054 95.9122 131.867 101.818 131.867 107.817C131.867 124.877 133.554 134.72 136.929 137.344C141.615 140.906 151.927 142.968 167.862 143.531V157.873H136.366C128.867 157.873 122.305 155.717 116.681 151.405C111.244 147.093 108.526 141.656 108.526 135.095V72.9465H198.233V167.434ZM139.741 38.6385H166.456V43.1379H207.794V59.7295H98.9648V43.1379H139.741V38.6385ZM199.916 43.1379H315.495V59.7295H199.916V43.1379ZM305.934 78.852L288.498 100.505C279.687 96.9433 271.344 95.1623 263.471 95.1623C255.972 95.1623 246.598 96.9433 235.349 100.505V141H276.969C282.593 141 287.28 138.75 291.029 134.251C293.467 131.251 297.029 126.377 301.715 119.628C302.278 138 301.715 149.155 300.028 153.092C299.466 154.03 297.685 155.061 294.685 156.185C291.686 157.31 288.217 157.873 284.28 157.873H230.569C228.319 157.873 225.038 157.592 220.726 157.029C216.414 156.654 214.071 156.279 213.696 155.904C210.884 153.28 209.478 148.874 209.478 142.687V78.852C225.788 73.7901 242.755 71.2592 260.377 71.2592C277.625 71.2592 292.81 73.7901 305.934 78.852ZM338.011 93.1938C340.823 87.757 351.416 85.0386 369.788 85.0386C399.597 85.0386 414.501 91.694 414.501 105.005V131.158C414.501 134.72 412.439 139.5 408.314 145.499C404.19 151.686 400.347 155.811 396.785 157.873H369.788C372.975 155.248 376.631 151.124 380.756 145.499C385.255 139.125 387.505 134.532 387.505 131.72V110.91C382.63 106.973 378.6 104.536 375.412 103.599C372.225 102.474 367.351 101.911 360.789 101.911C355.353 101.911 350.666 102.568 346.729 103.88C340.73 105.755 337.73 108.848 337.73 113.16V177.839H318.326V59.7295H307.359V43.1379H322.263C325.638 31.8894 332.106 22.2344 341.667 14.173C351.416 5.92408 362.008 1.79962 373.444 1.79962C378.881 1.79962 384.505 2.737 390.317 4.61175C398.003 7.04893 401.846 10.4235 401.846 14.7354C401.846 16.9851 400.534 18.8599 397.909 20.3597C395.472 21.672 393.035 22.3282 390.598 22.3282C387.598 22.3282 383.005 21.8595 376.819 20.9221C370.819 19.9847 366.226 19.516 363.039 19.516C349.353 19.516 339.605 27.39 333.793 43.1379H425.468V59.7295H338.011V93.1938Z" fill="#1982C4"/>
<path d="M503.829 139.032C503.079 134.532 499.705 130.033 493.705 125.533C488.831 121.971 483.769 119.159 478.52 117.097C470.833 114.285 452.742 112.785 424.246 112.598C425.746 108.098 427.339 103.88 429.026 99.9429C433.151 90.3817 437.556 83.2576 442.243 78.5707C451.242 69.197 462.678 62.9166 476.551 59.7295H417.497V43.1379H538.981V59.7295H509.172C516.484 62.9166 524.076 66.8535 531.95 71.5404L511.984 91.5065C491.737 80.258 477.114 74.6338 468.115 74.6338C464.553 74.6338 461.085 76.7897 457.71 81.1017C455.46 84.8512 453.117 88.6007 450.68 92.3502C467.74 92.3502 479.738 93.0063 486.675 94.3187C499.798 96.5684 510.297 101.63 518.171 109.504C521.733 113.066 523.514 117.097 523.514 121.596C523.514 131.345 513.578 143.906 493.705 159.279H425.652L445.899 139.032H503.829ZM630.869 167.434H611.184V90.1005H565.065C564.69 95.9122 564.503 101.818 564.503 107.817C564.503 124.877 566.19 134.72 569.565 137.344C574.252 140.906 584.563 142.968 600.498 143.531V157.873H569.002C561.503 157.873 554.942 155.717 549.317 151.405C543.881 147.093 541.162 141.656 541.162 135.095V72.9465H630.869V167.434ZM572.377 38.6385H599.092V43.1379H640.43V59.7295H531.601V43.1379H572.377V38.6385ZM663.205 93.1938C666.017 87.757 676.609 85.0386 694.982 85.0386C724.79 85.0386 739.695 91.694 739.695 105.005V131.158C739.695 134.72 737.632 139.5 733.508 145.499C729.384 151.686 725.54 155.811 721.978 157.873H694.982C698.169 155.248 701.825 151.124 705.949 145.499C710.449 139.125 712.698 134.532 712.698 131.72V110.91C707.824 106.973 703.793 104.536 700.606 103.599C697.419 102.474 692.545 101.911 685.983 101.911C680.546 101.911 675.859 102.568 671.922 103.88C665.923 105.755 662.924 108.848 662.924 113.16V177.839H643.52V59.7295H632.553V43.1379H647.457C650.831 31.8894 657.299 22.2344 666.861 14.173C676.609 5.92408 687.202 1.79962 698.638 1.79962C704.074 1.79962 709.699 2.737 715.51 4.61175C723.197 7.04893 727.04 10.4235 727.04 14.7354C727.04 16.9851 725.728 18.8599 723.103 20.3597C720.666 21.672 718.229 22.3282 715.792 22.3282C712.792 22.3282 708.199 21.8595 702.012 20.9221C696.013 19.9847 691.42 19.516 688.233 19.516C674.547 19.516 664.798 27.39 658.987 43.1379H750.662V59.7295H663.205V93.1938ZM841.996 167.434H822.311V90.1005H776.192C775.818 95.9122 775.63 101.818 775.63 107.817C775.63 124.877 777.317 134.72 780.692 137.344C785.379 140.906 795.69 142.968 811.625 143.531V157.873H780.129C772.63 157.873 766.069 155.717 760.445 151.405C755.008 147.093 752.289 141.656 752.289 135.095V72.9465H841.996V167.434ZM783.504 38.6385H810.219V43.1379H851.558V59.7295H742.728V43.1379H783.504V38.6385ZM945.76 165.184L926.075 185.15C919.701 191.525 910.983 194.712 899.922 194.712C889.049 194.712 877.425 190.681 865.052 182.62L885.018 162.653C897.016 170.527 908.359 174.464 919.045 174.464C921.294 174.464 923.544 174.277 925.794 173.902V128.908C908.546 136.594 897.11 140.906 891.486 141.844C889.424 142.219 887.174 142.406 884.737 142.406C871.801 142.406 861.959 139.032 855.209 132.282C853.147 130.22 852.116 127.408 852.116 123.846C852.116 117.472 855.491 108.286 862.24 96.2872C866.927 88.6007 871.614 80.9142 876.3 73.2277H887.83C878.644 89.7255 874.051 101.443 874.051 108.379C874.051 110.067 874.426 111.379 875.176 112.316C880.425 118.878 889.517 122.159 902.453 122.159C905.453 122.159 908.265 121.971 910.89 121.596C913.702 121.034 918.67 119.44 925.794 116.816V59.7295H843.68V43.1379H932.824C935.449 34.3266 941.448 25.7027 950.822 17.2663C959.258 9.76732 966.195 5.7366 971.632 5.17417C976.318 4.79922 979.787 5.36165 982.036 6.86146C984.286 8.17379 985.411 11.0797 985.411 15.5791C985.411 17.6413 984.192 19.4223 981.755 20.9221C979.318 22.4219 976.881 23.1718 974.444 23.1718C971.444 22.9843 967.038 22.8906 961.227 22.8906C957.477 22.8906 954.196 24.7653 951.384 28.5149C949.135 31.5145 946.791 36.3888 944.354 43.1379H961.789V59.7295H946.041L945.76 165.184Z" fill="#1982C4"/>
</svg>
