<svg width="389" height="376" viewBox="0 0 389 376" fill="none" xmlns="http://www.w3.org/2000/svg">
<path d="M183.13 160.748C186.204 162.822 190.376 162.011 192.45 158.937C194.523 155.863 193.712 151.69 190.638 149.617C187.564 147.543 183.391 148.354 181.318 151.428C179.244 154.502 180.056 158.675 183.13 160.748Z" fill="#1982C4"/>
<path d="M209.567 178.581C212.641 180.654 216.814 179.843 218.888 176.769C220.961 173.695 220.15 169.523 217.076 167.449C214.002 165.376 209.829 166.187 207.756 169.261C205.682 172.335 206.493 176.508 209.567 178.581Z" fill="#1982C4"/>
<path d="M169.996 472.172C164.291 463.778 165.085 453.94 166.756 447.165C170.197 433.207 179.816 421.532 187.12 417.631C189.993 416.097 194.646 414.679 200.031 413.037C222.923 406.062 261.236 394.388 281.809 340.11C287.848 324.181 287.26 309.002 280.064 294.994C266.36 268.317 231.824 252.759 211.411 245.604C234.518 230.908 257.725 210.193 268.754 193.842C290.914 160.988 282.215 116.232 249.361 94.0714C216.508 71.9117 171.752 80.6118 149.592 113.466C138.498 129.913 128.038 159.062 123.078 186.006C109.028 170.035 81.8368 143.915 52.124 140.925C36.2229 139.325 21.7416 144.448 9.08317 156.154C-33.5371 195.564 -30.0076 235.461 -27.8995 259.298C-27.4036 264.906 -26.9752 269.75 -27.3212 272.988C-28.2017 281.221 -35.4247 294.514 -47.0759 302.933C-52.7324 307.019 -61.5568 311.441 -71.477 309.296C-74.6382 308.614 -77.8365 310.28 -79.0874 313.263C-80.3262 316.219 -79.3017 319.636 -76.6505 321.424C-76.6271 321.44 -76.603 321.456 -76.5785 321.472C-75.3168 322.301 -45.3589 341.632 -19.3014 330.179C-2.81363 322.933 7.80049 305.449 12.2478 278.213C21.0386 224.37 36.5323 208.189 44.985 203.335C51.5175 199.585 56.555 200.843 58.4172 201.557C61.8788 202.887 65.7628 201.158 67.0912 197.697C68.421 194.234 66.6901 190.348 63.2303 189.023C55.505 186.056 46.4181 187.028 38.2995 191.69C19.606 202.424 6.38226 230.805 -1.00448 276.049C-4.66672 298.484 -12.6268 312.554 -24.6607 317.868C-32.2009 321.197 -40.5902 320.799 -48.0396 319.063C-45.0556 317.658 -42.1052 315.909 -39.2112 313.818C-25.7929 304.122 -15.4127 287.921 -13.9686 274.418C-13.4832 269.875 -13.9649 264.427 -14.5228 258.117C-16.5361 235.352 -19.5797 200.949 18.2007 166.014C28.0424 156.913 38.6919 153.076 50.7576 154.284C86.9537 157.906 121.799 205.668 122.147 206.149C124.315 209.156 128.507 209.836 131.517 207.672C133.434 206.293 134.403 204.087 134.295 201.89C137.676 170.741 150.318 136.406 160.725 120.976C178.745 94.2586 215.139 87.1838 241.853 105.203C268.568 123.222 275.643 159.617 257.623 186.332C247.868 200.794 223.076 223.633 197.108 238.594C195.608 239.458 191.688 241.482 191.292 241.716C189.789 242.603 188.632 244.069 188.185 245.899C187.309 249.499 189.513 253.133 193.11 254.009C193.146 254.018 193.451 254.093 193.995 254.237C199.924 255.811 252.385 270.493 268.122 301.129C273.583 311.76 273.953 322.955 269.255 335.35C251.016 383.466 217.979 393.532 196.117 400.193C190.058 402.039 184.825 403.634 180.796 405.786C168.816 412.184 157.682 427.878 153.72 443.951C152.862 447.436 152.341 450.845 152.16 454.154C147.77 447.916 144.264 440.293 144.513 432.024C144.91 418.858 154.974 406.193 174.427 394.378C213.609 370.58 234.971 347.686 237.919 326.335C239.201 317.061 236.697 308.272 231.054 302.22C228.523 299.507 224.276 299.36 221.565 301.889C218.853 304.418 218.704 308.667 221.234 311.378C222.595 312.837 225.649 317.036 224.618 324.498C223.285 334.153 214.086 354.58 167.456 382.901C143.87 397.227 131.634 413.618 131.092 431.62C130.234 460.068 159.38 480.603 160.621 481.462C160.645 481.479 160.668 481.495 160.692 481.511C163.344 483.3 166.894 482.971 169.172 480.713C171.467 478.437 171.814 474.847 169.996 472.172Z" fill="#1982C4"/>
<path d="M188.125 335.413C197.499 320.887 200.555 306.812 196.727 295.78C195.513 292.279 191.689 290.421 188.184 291.637C184.682 292.852 182.826 296.678 184.042 300.181C188.861 314.073 172.673 342.438 145.343 356.825C126.96 366.503 109.329 390.903 98.5591 408.096C101.208 379.31 121.347 341.443 131.014 326.148C141.596 313.968 149.695 304.116 151.953 300.769C155.248 295.884 156.555 289.931 155.735 283.555C155.262 279.878 151.896 277.279 148.219 277.753C144.541 278.226 141.943 281.592 142.416 285.269C142.82 288.403 142.283 291.092 140.821 293.26C137.858 297.652 118.172 321.167 96.19 344.862C70.2709 372.803 57.3315 383.618 51.2371 387.803C52.8331 380.585 58.0141 364.537 74.2123 330.038C87.9478 300.781 102.375 273.72 105.338 269.326C106.652 267.379 108.647 265.961 111.27 265.11C114.797 263.966 116.729 260.179 115.584 256.652C114.44 253.126 110.653 251.195 107.127 252.338C101.662 254.111 97.1941 257.388 94.2056 261.819C91.9525 265.159 85.8767 276.314 78.5725 290.636C68.0619 305.283 40.4333 338.253 14.6795 351.521C26.5861 335.095 42.6057 309.606 44.6909 288.937C47.7928 258.208 68.0285 232.573 82.7156 231.837C86.4178 231.651 89.2697 228.498 89.0841 224.796C88.8985 221.094 85.747 218.239 82.0428 218.427C70.3808 219.012 58.4757 227.118 48.5183 241.25C39.2384 254.423 32.9741 271.313 31.3318 287.59C28.4562 316.082 -8.19121 359.077 -8.56129 359.508C-10.3083 361.545 -10.6765 364.427 -9.4949 366.836C-8.96643 367.913 -8.17514 368.803 -7.221 369.447C-6.04112 370.243 -4.61309 370.66 -3.13164 370.586C17.2266 369.565 39.0652 353.339 56.453 336.496C49.9492 350.905 45.0221 362.964 41.7885 372.403C36.6172 387.497 34.7602 397.762 41.4675 402.286C48.1754 406.81 56.9967 401.243 69.056 390.793C76.5892 384.266 85.9132 375.192 96.8226 363.78C87.728 386.202 80.8781 412.506 87.5531 431.753C88.0395 433.154 88.9617 434.322 90.1421 435.118C91.0951 435.761 92.2185 436.161 93.4143 436.248C96.0906 436.441 98.6257 435.02 99.8591 432.638C100.121 432.133 126.256 382.048 151.597 368.709C166.074 361.085 179.386 348.951 188.125 335.413Z" fill="#1982C4"/>
</svg>
