<svg width="436" height="285" viewBox="0 0 436 285" fill="none" xmlns="http://www.w3.org/2000/svg">
<path d="M7.19545 128.486C42.2559 125.607 74.3855 160.366 85.8482 166.257C86.7648 165.699 87.7367 165.226 88.8237 164.934L105.504 160.465L95.8108 124.288C94.5992 119.766 97.2846 115.114 101.807 113.902C106.329 112.69 110.981 115.376 112.193 119.898L121.886 156.075L147.973 149.085L136.329 105.628C135.117 101.106 137.803 96.4538 142.325 95.2421C146.847 94.0303 151.499 96.7159 152.71 101.238L164.355 144.696L190.449 137.704L176.854 86.9657C175.642 82.4433 178.328 77.7918 182.85 76.58C187.373 75.3683 192.024 78.0539 193.236 82.5762L206.831 133.314L232.918 126.324L221.274 82.8668C220.062 78.3452 222.747 73.6929 227.27 72.4811C231.791 71.2696 236.444 73.9549 237.655 78.4773L249.3 121.935L273.147 115.545C261.182 64.294 265.944 32.4369 265.944 32.4369C337.3 17.9804 406.28 71.9532 406.28 71.9532L397.005 94.3054L416.213 109.025C416.213 109.025 383.46 190.251 314.436 213.417C314.436 213.417 294.384 188.208 279.121 137.842L255.274 144.232L266.918 187.689C268.129 192.211 265.444 196.863 260.922 198.074C256.399 199.286 251.748 196.6 250.536 192.078L238.892 148.621L212.805 155.611L226.4 206.349C227.612 210.871 224.926 215.523 220.404 216.734C215.882 217.946 211.23 215.26 210.018 210.738L196.423 160.001L170.329 166.993L181.973 210.45C183.185 214.972 180.499 219.623 175.977 220.835C171.454 222.047 166.803 219.361 165.591 214.839L153.947 171.382L127.86 178.372L137.553 214.548C138.765 219.07 136.079 223.722 131.557 224.933C127.035 226.145 122.383 223.46 121.171 218.937L111.478 182.762L94.7973 187.231C93.7096 187.523 92.6233 187.593 91.5494 187.568C84.5716 198.414 74.1245 244.576 42.3292 259.61L30.4141 192.533L7.19545 128.486ZM333.28 100.445C340.319 98.5591 344.494 91.3289 342.608 84.2899C340.722 77.2509 333.492 73.0766 326.453 74.9629C319.414 76.849 315.239 84.0791 317.125 91.1181C319.011 98.157 326.241 102.331 333.28 100.445Z" fill="#FF595E"/>
</svg>
