<svg width="718" height="466" viewBox="0 0 718 466" fill="none" xmlns="http://www.w3.org/2000/svg">
<g clip-path="url(#clip0_50_737)">
<path d="M-14.6848 358.937C-21.8545 348.308 -18.9693 333.861 -8.23016 326.617L69.449 274.222C80.1881 266.978 94.6642 269.715 101.834 280.345C118.715 305.371 116.683 337.505 99.5042 360.67L101.89 364.207C123.334 396 166.924 404.241 199.045 382.576C228.446 362.744 256.624 343.738 257.304 343.279C281.52 326.945 308.702 309.31 338.056 295.439L296.088 233.219C325.062 213.676 373.668 226.924 407.083 272.819C475.988 261.245 552.3 284.359 628.466 392.255C630.722 395.431 638.183 405.277 639.44 407.142C650.176 423.057 645.838 444.777 629.759 455.623C624.709 459.028 619.076 460.814 613.423 461.355C611.383 461.557 183.001 466.195 183.001 466.195C115.722 469.457 92.6461 438.765 59.6999 387.155C32.0187 393.912 2.00136 383.676 -14.6848 358.937Z" fill="#1982C4"/>
<path opacity="0.4" d="M205.104 378.489C234.505 358.657 256.624 343.738 257.304 343.279C281.52 326.945 308.702 309.31 338.056 295.439C338.056 295.439 377.49 277.957 407.083 272.819C475.554 261.314 550.284 282.251 628.466 392.255L205.104 378.489Z" fill="white"/>
<path opacity="0.3" d="M407.083 272.819C377.458 277.951 338.056 295.439 338.056 295.439L296.088 233.219C325.062 213.676 373.668 226.924 407.083 272.819ZM645.141 428.579C645.602 421.22 643.862 413.697 639.44 407.142C638.183 405.277 636.75 403.615 635.208 402.082C635.195 402.063 635.202 402.031 635.189 402.011C632.997 398.763 630.651 395.368 628.466 392.255L500.443 388.443L498.841 423.307L645.141 428.579ZM-14.6849 358.937C-21.8546 348.308 -18.9694 333.861 -8.23027 326.617L69.4489 274.222C80.188 266.978 94.6641 269.715 101.834 280.345C118.714 305.371 116.683 337.505 99.5041 360.67L59.6803 387.168C32.0186 393.912 2.00125 383.676 -14.6849 358.937Z" fill="black"/>
</g>
<ellipse cx="697.42" cy="361.118" rx="10.0605" ry="10.59" fill="#125B89"/>
<ellipse cx="668.827" cy="319.817" rx="10.0605" ry="10.59" fill="#125B89"/>
<ellipse cx="706.951" cy="324.053" rx="10.0605" ry="10.59" fill="#00B4D8"/>
<ellipse cx="13.2375" cy="14.2964" rx="13.2375" ry="14.2964" transform="matrix(-0.910311 -0.413924 -0.413924 0.910311 718 283.121)" fill="#75B4DC"/>
<ellipse cx="13.2375" cy="14.2964" rx="13.2375" ry="14.2964" transform="matrix(-0.910311 -0.413924 -0.413924 0.910311 667.168 335.011)" fill="#75B4DC"/>
<ellipse cx="19.0619" cy="20.6504" rx="19.0619" ry="20.6504" transform="matrix(-1 0 0 1 687.359 361.118)" fill="#1982C4"/>
<defs>
<clipPath id="clip0_50_737">
<rect width="562.188" height="556.451" fill="white" transform="translate(704.238 461.319) rotate(146)"/>
</clipPath>
</defs>
</svg>
